<svg width="60" height="60" viewBox="0 0 60 60" fill="none" xmlns="http://www.w3.org/2000/svg">
<rect width="60" height="60" fill="white"/>
<rect width="60" height="60" fill="#EAF6F7"/>
<path d="M47.4373 29.8391C47.2191 29.8595 46.9958 29.8799 46.7673 29.9002L46.7664 29.9003C46.5509 29.9204 46.3636 29.9303 46.2038 29.9303C45.7144 29.9303 45.3994 29.8486 45.2204 29.7209C45.0611 29.6073 44.9587 29.404 44.9587 29.0518C44.9587 28.8657 44.9873 28.6398 45.048 28.3719L45.0482 28.371L45.7865 25.0433L45.8405 24.8H45.5912H43.1408H42.9799L42.9455 24.9572L42.2234 28.2518L42.4183 28.2969L43.1408 25H45.3864L45.396 24.9567L45.5912 25V25.2H45.5469L44.853 28.3277C44.7901 28.605 44.7587 28.8464 44.7587 29.0518C44.7587 29.4421 44.8739 29.7194 45.1043 29.8838C45.3347 30.0481 45.7012 30.1303 46.2038 30.1303C46.3714 30.1303 46.5651 30.12 46.785 30.0994C47.0154 30.0789 47.2406 30.0584 47.4605 30.0378M47.4373 29.8391C47.4357 29.8393 47.4342 29.8395 47.4327 29.8397L47.4605 30.0378M47.4373 29.8391C47.4388 29.839 47.4403 29.8388 47.4419 29.8387L47.4605 30.0378M47.4373 29.8391C47.6537 29.8087 47.849 29.7785 48.0232 29.7483L48.0251 29.748C48.1377 29.7296 48.2349 29.7146 48.3162 29.7032M47.4605 30.0378C47.6804 30.007 47.8793 29.9762 48.0574 29.9454C48.2458 29.9146 48.3872 29.894 48.4815 29.8838M48.4815 29.8838L48.2861 29.841L48.3162 29.7032M48.4815 29.8838L49.5496 25M48.4815 29.8838L48.4598 29.6849C48.4194 29.6893 48.3715 29.6954 48.3162 29.7032M48.3162 29.7032L49.3542 24.9573L49.3886 24.8H49.5496H52H52.2481L52.1954 25.0424L49.8079 36.0424L49.7737 36.2H49.6124H47.162H46.9146L46.9665 35.9581L47.7973 32.0838M49.5496 25L48.0113 32.0399C47.9469 32.0537 47.8755 32.0684 47.7973 32.0838M49.5496 25H51.7953M49.5496 25H51.7953M47.7973 32.0838C47.7242 32.0983 47.6451 32.1135 47.56 32.1294L47.5524 32.1308L47.5524 32.1306C47.342 32.1616 47.1212 32.1925 46.8901 32.2234C46.6569 32.2546 46.4238 32.2806 46.1906 32.3014M47.7973 32.0838L46.1906 32.3014M46.1906 32.3014C45.9665 32.3223 45.7665 32.3331 45.5912 32.3331C44.5227 32.3331 43.6616 32.1345 43.03 31.7141C42.3703 31.2751 42.0612 30.5375 42.0612 29.5602C42.0612 29.1526 42.1158 28.7166 42.2231 28.253L46.1906 32.3014ZM51.7953 25L51.8046 24.9576L52 25V25.2H51.9566M51.7953 25L51.9566 25.2M51.9566 25.2L49.6124 36L51.9566 25.2ZM10.3405 24.8H10.1785L10.1448 24.9584L7.80438 35.9584L7.75297 36.2H8H13.9689C14.5528 36.2 15.1116 36.1204 15.6444 35.9605C16.1782 35.8002 16.6552 35.5641 17.0733 35.2512C17.4957 34.9349 17.8293 34.5367 18.0732 34.0588C18.3313 33.574 18.4572 33.0174 18.4572 32.395C18.4572 31.8228 18.2995 31.3142 17.9804 30.8772C17.7786 30.5847 17.5194 30.3552 17.2066 30.1877C17.3364 30.1392 17.4592 30.0797 17.5747 30.009C17.8559 29.8433 18.0944 29.6376 18.2883 29.3917C18.4914 29.137 18.6441 28.8541 18.7457 28.5441L18.7463 28.5421C18.8466 28.225 18.897 27.9017 18.897 27.5728C18.897 27.0304 18.8106 26.5703 18.6244 26.2044C18.4407 25.8332 18.1743 25.5424 17.8266 25.3373C17.4857 25.1259 17.0777 24.9853 16.608 24.9103C16.1451 24.8364 15.6264 24.8 15.0528 24.8H10.3405ZM15.1151 33.5185L15.1151 33.5184L15.1129 33.5203C14.8003 33.7818 14.3882 33.9204 13.859 33.9204H11.013L11.5853 31.3008H13.8433C14.057 31.3008 14.2762 31.3108 14.501 31.3309C14.7094 31.3494 14.8946 31.4001 15.059 31.4807L15.0589 31.4809L15.0671 31.4845C15.2228 31.5523 15.3452 31.6522 15.4388 31.7857L15.4386 31.7858L15.4437 31.7924C15.534 31.9105 15.591 32.0883 15.591 32.3487C15.591 32.8898 15.4239 33.2675 15.1151 33.5185ZM15.7534 27.2889L15.7533 27.2891L15.7618 27.2945C15.9198 27.3956 16.0309 27.6041 16.0309 28.0042C16.0309 28.4347 15.885 28.7342 15.6101 28.9366C15.3239 29.1448 14.979 29.2524 14.5658 29.2524H12.0171L12.4814 27.0796H14.9271C15.2998 27.0796 15.5682 27.1568 15.7534 27.2889ZM22.3676 24.8H22.2054L22.1719 24.9586L19.8471 35.9586L19.7961 36.2H20.0428H22.4932H22.6548L22.6888 36.0421L23.503 32.256H26.3888C26.9953 32.256 27.5718 32.1657 28.117 31.9838C28.662 31.8021 29.1445 31.5392 29.5625 31.1942C29.9931 30.8474 30.3306 30.4241 30.5736 29.926C30.8296 29.4125 30.9555 28.8373 30.9555 28.2045C30.9555 27.5786 30.853 27.039 30.638 26.5939C30.4359 26.1544 30.1474 25.7982 29.7721 25.5305C29.4015 25.2661 28.9624 25.082 28.4592 24.9744C27.9711 24.8576 27.4377 24.8 26.86 24.8H22.3676ZM27.9541 27.6637L27.9537 27.6639L27.9608 27.6757C28.0413 27.8099 28.0894 27.997 28.0894 28.2507C28.0894 28.8715 27.9173 29.2949 27.6086 29.5631C27.2996 29.8305 26.8595 29.9765 26.2631 29.9765H23.9961L24.6034 27.0796H26.5458C26.7533 27.0796 26.9491 27.0989 27.1337 27.1371L27.1356 27.1374C27.3237 27.1743 27.4895 27.2381 27.6351 27.3274L27.635 27.3276L27.643 27.332C27.7726 27.4035 27.8764 27.5113 27.9541 27.6637ZM35.9106 24.8H35.7975L35.7392 24.897L29.1262 35.897L28.944 36.2H29.2976H31.8894H32.0049L32.0626 36.1L33.4186 33.7504H37.3244L37.6605 36.0292L37.6857 36.2H37.8584H40.3088H40.5456L40.5059 35.9665L38.6367 24.9665L38.6084 24.8H38.4395H35.9106ZM37.0505 31.5479H34.6161L36.5997 27.9601L37.0505 31.5479Z" fill="#51BAD1" stroke="#51BAD1" stroke-width="0.4"/>
</svg>
